<?xml version="1.0" encoding="utf-8"?>
<!-- Generator: Adobe Illustrator 21.0.0, SVG Export Plug-In . SVG Version: 6.00 Build 0)  -->
<svg version="1.1" id="Layer_1" xmlns="http://www.w3.org/2000/svg" xmlns:xlink="http://www.w3.org/1999/xlink" x="0px" y="0px"
	 viewBox="0 0 180 50" style="enable-background:new 0 0 180 50;" xml:space="preserve">
<g>
	<path d="M36.2,46.3H11.5v-42h8.4v35.3h16.3V46.3z"/>
	<path d="M75.6,41c-3.6,4-8.7,6-15.2,6c-6.6,0-11.7-2.1-15.3-6.1c-3.5-3.8-5.3-9.1-5.3-15.7c0-6.6,1.8-11.9,5.3-15.7
		c3.6-3.9,8.7-5.9,15.3-5.9c6.5,0,11.6,2,15.3,5.9c3.5,3.8,5.3,9,5.3,15.6C80.9,31.9,79.1,37.1,75.6,41z M69.4,15
		c-2.1-3-5.1-4.6-9.1-4.6c-3.9,0-6.9,1.6-9,4.7c-1.8,2.7-2.8,6.1-2.8,10.2c0,4.2,0.9,7.7,2.7,10.4c2.1,3.2,5.1,4.8,9.1,4.8
		c4,0,7-1.6,9.1-4.7c1.8-2.7,2.7-6.2,2.7-10.5C72.1,21.1,71.2,17.6,69.4,15z"/>
	<path d="M123.4,44.9c-4.9,1.4-9.4,2.1-13.5,2.1c-7.1,0-12.6-1.7-16.6-5.1c-4.3-3.6-6.4-8.9-6.4-15.7c0-15,7.6-22.5,22.8-22.5
		c4.6,0,8.8,0.6,12.5,1.7l-0.6,7.1c-3.6-1.5-7.2-2.2-10.8-2.2c-4.8,0-8.5,1.5-11.3,4.4c-2.6,2.7-3.9,6.3-3.9,10.8
		c0,4.4,1.3,8,3.8,10.7c2.6,2.9,6.1,4.3,10.4,4.3c2.3,0,4.1-0.2,5.5-0.6V28.9h-8.9v-6.6h16.9V44.9z"/>
	<path d="M166.2,41c-3.6,4-8.7,6-15.2,6c-6.6,0-11.7-2.1-15.3-6.1c-3.5-3.8-5.3-9.1-5.3-15.7c0-6.6,1.8-11.9,5.3-15.7
		c3.6-3.9,8.7-5.9,15.3-5.9c6.5,0,11.6,2,15.3,5.9c3.5,3.8,5.3,9,5.3,15.6C171.5,31.9,169.8,37.1,166.2,41z M160.1,15
		c-2.1-3-5.1-4.6-9.1-4.6c-3.9,0-6.9,1.6-9,4.7c-1.8,2.7-2.8,6.1-2.8,10.2c0,4.2,0.9,7.7,2.7,10.4c2.1,3.2,5.1,4.8,9.1,4.8
		c4,0,7-1.6,9.1-4.7c1.8-2.7,2.7-6.2,2.7-10.5C162.7,21.1,161.8,17.6,160.1,15z"/>
</g>
</svg>
